<?xml version="1.0" encoding="utf-8"?>
<!-- Generator: Adobe Illustrator 17.0.0, SVG Export Plug-In . SVG Version: 6.00 Build 0)  -->
<!DOCTYPE svg PUBLIC "-//W3C//DTD SVG 1.1//EN" "http://www.w3.org/Graphics/SVG/1.1/DTD/svg11.dtd">
<svg version="1.1" id="Layer_1" xmlns="http://www.w3.org/2000/svg" xmlns:xlink="http://www.w3.org/1999/xlink" x="0px" y="0px"
	 width="612px" height="108px" viewBox="0 0 612 108" enable-background="new 0 0 612 108" xml:space="preserve">
<g>
	<path d="M44.877,98.076c-9.366-1.338-17.73-5.872-23.939-12.45c3.567-2.936,4.609-8.139,2.192-12.3
		c-2.378-4.125-7.396-5.834-11.745-4.199c-1.117-3.717-1.709-7.694-1.709-11.743c0-5.388,1.003-10.517,2.862-15.199
		c0.259-0.631-0.26-1.448-0.967-1.448c-0.036-0.001-0.072-0.001-0.109-0.001c-0.373,0.036-0.707,0.334-0.857,0.668
		c-1.933,4.943-3.047,10.331-3.047,15.979c0,4.386,0.704,8.659,1.932,12.674c-4.312,2.787-5.723,8.509-3.123,12.968
		c2.567,4.498,8.253,6.133,12.825,3.791c6.543,7.06,15.426,11.929,25.388,13.378c0.557,0.074,1.114-0.371,1.188-0.928
		C45.845,98.745,45.435,98.151,44.877,98.076z M18.561,84.734c-3.643,2.119-8.29,0.892-10.409-2.749
		c-2.081-3.643-0.855-8.288,2.79-10.368c1.154-0.67,2.379-1.004,3.605-1.042c2.714-0.036,5.353,1.301,6.802,3.828
		C23.43,78.046,22.205,82.653,18.561,84.734z"/>
	<path d="M92.161,70.055c1.227-4.014,1.896-8.252,1.896-12.674c0-5.648-1.078-11.036-3.049-15.978
		c-0.15-0.444-0.633-0.743-1.079-0.705c-0.633,0.076-1.115,0.857-0.855,1.451c1.858,4.719,2.9,9.848,2.9,15.236
		c0,4.088-0.633,8.028-1.709,11.743c-4.349-1.635-9.367,0.074-11.784,4.199c-2.379,4.162-1.375,9.366,2.193,12.339
		c-6.208,6.541-14.534,11.075-23.9,12.411c-0.558,0.076-0.967,0.67-0.892,1.189c0.074,0.557,0.633,1.002,1.188,0.928
		c9.999-1.449,18.847-6.318,25.425-13.342c4.535,2.305,10.186,0.67,12.788-3.828C97.847,78.564,96.435,72.841,92.161,70.055z
		 M93.462,81.984c-2.119,3.641-6.727,4.905-10.369,2.787c-3.68-2.081-4.87-6.726-2.789-10.368c1.448-2.526,4.087-3.901,6.764-3.828
		c1.227,0.037,2.49,0.371,3.605,1.041C94.317,73.696,95.58,78.341,93.462,81.984z"/>
	<path d="M60.378,17.359c9.144,2.193,17.099,7.395,22.712,14.531c0.371,0.41,1.078,0.483,1.486,0.148
		c0.446-0.334,0.521-1.041,0.186-1.486c-6.021-7.581-14.533-13.081-24.273-15.31c-0.297-5.092-4.497-9.18-9.663-9.18
		s-9.367,4.051-9.665,9.142c-9.738,2.23-18.251,7.766-24.273,15.349c-0.334,0.445-0.259,1.152,0.148,1.486
		c0.447,0.334,1.152,0.26,1.486-0.148c5.65-7.135,13.605-12.337,22.748-14.531c0.782,4.571,4.759,8.065,9.554,8.065
		S59.597,21.931,60.378,17.359z M50.827,23.341c-4.237,0-7.583-3.381-7.583-7.581c0-4.2,3.346-7.655,7.583-7.655
		c4.199,0,7.583,3.456,7.583,7.655C58.41,19.959,55.026,23.341,50.827,23.341z"/>
</g>
<g>
	<path d="M119.568,58.68v40.98h-6.531V9.055h23.116c10.458,0,18.27,2.017,23.436,6.051c5.165,4.034,7.748,9.957,7.748,17.769
		c0,3.458-0.598,6.618-1.793,9.477c-1.196,2.86-2.914,5.369-5.155,7.523c-2.241,2.156-4.941,3.928-8.1,5.315
		c-3.16,1.388-6.724,2.295-10.693,2.721c1.024,0.641,1.942,1.495,2.753,2.562l31.184,39.188h-5.699
		c-0.683,0-1.271-0.128-1.761-0.384c-0.491-0.256-0.972-0.682-1.441-1.281l-29.006-36.754c-0.727-0.938-1.505-1.601-2.337-1.985
		c-0.832-0.384-2.124-0.576-3.874-0.576H119.568z M119.568,53.813h15.752c4.012,0,7.609-0.48,10.79-1.44
		c3.18-0.96,5.869-2.337,8.068-4.13c2.198-1.793,3.874-3.948,5.026-6.467c1.153-2.518,1.729-5.356,1.729-8.516
		c0-6.445-2.113-11.227-6.339-14.343c-4.227-3.115-10.374-4.674-18.441-4.674h-16.584V53.813z"/>
	<path d="M229.511,99.66c-1.281,0-2.071-0.597-2.369-1.793l-0.896-8.132c-1.751,1.708-3.49,3.245-5.219,4.61
		c-1.729,1.367-3.533,2.519-5.411,3.458c-1.879,0.939-3.906,1.655-6.083,2.145s-4.568,0.736-7.172,0.736
		c-2.177,0-4.29-0.32-6.339-0.96c-2.049-0.64-3.864-1.622-5.443-2.945c-1.58-1.323-2.85-3.02-3.81-5.091
		c-0.96-2.07-1.44-4.556-1.44-7.459c0-2.689,0.768-5.187,2.305-7.492c1.537-2.305,3.938-4.312,7.204-6.019
		c3.266-1.707,7.47-3.074,12.614-4.098c5.144-1.024,11.323-1.622,18.537-1.793v-6.659c0-5.891-1.271-10.426-3.81-13.607
		c-2.541-3.18-6.308-4.771-11.302-4.771c-3.074,0-5.689,0.427-7.844,1.281c-2.156,0.854-3.981,1.793-5.475,2.817
		c-1.495,1.024-2.711,1.964-3.65,2.817c-0.939,0.854-1.729,1.281-2.369,1.281c-0.854,0-1.495-0.384-1.921-1.153l-1.088-1.857
		c3.33-3.33,6.829-5.848,10.501-7.556c3.671-1.707,7.833-2.561,12.486-2.561c3.415,0,6.403,0.544,8.964,1.633
		c2.562,1.088,4.685,2.647,6.372,4.674c1.686,2.028,2.955,4.482,3.81,7.363c0.854,2.882,1.281,6.094,1.281,9.637V99.66H229.511z
		 M203.898,96.267c2.475,0,4.748-0.266,6.819-0.801c2.07-0.533,3.991-1.28,5.763-2.241c1.771-0.96,3.426-2.102,4.962-3.426
		c1.537-1.323,3.052-2.753,4.546-4.29V68.925c-6.062,0.171-11.281,0.63-15.656,1.376c-4.376,0.748-7.983,1.761-10.821,3.042
		c-2.839,1.281-4.931,2.808-6.275,4.579c-1.345,1.772-2.017,3.789-2.017,6.051c0,2.135,0.353,3.981,1.057,5.539
		c0.705,1.559,1.633,2.839,2.786,3.842c1.152,1.003,2.497,1.74,4.034,2.209C200.632,96.032,202.233,96.267,203.898,96.267z"/>
	<path d="M286.243,43.888c-0.299,0.598-0.769,0.896-1.409,0.896c-0.47,0-1.079-0.266-1.825-0.8
		c-0.747-0.533-1.729-1.131-2.945-1.793c-1.217-0.662-2.711-1.259-4.482-1.793c-1.771-0.533-3.938-0.8-6.499-0.8
		c-2.305,0-4.408,0.33-6.307,0.99c-1.9,0.661-3.522,1.544-4.867,2.65s-2.391,2.394-3.137,3.863c-0.748,1.469-1.121,3.013-1.121,4.63
		c0,2.001,0.512,3.662,1.537,4.981c1.024,1.32,2.369,2.447,4.034,3.384c1.665,0.937,3.554,1.746,5.667,2.427
		c2.113,0.682,4.279,1.364,6.5,2.046c2.219,0.684,4.386,1.441,6.499,2.273c2.113,0.833,4.002,1.868,5.667,3.105
		c1.665,1.239,3.01,2.753,4.034,4.546s1.537,3.97,1.537,6.531c0,2.775-0.502,5.357-1.505,7.748
		c-1.003,2.391-2.455,4.461-4.354,6.211c-1.9,1.751-4.237,3.138-7.012,4.162c-2.775,1.024-5.934,1.537-9.477,1.537
		c-4.482,0-8.346-0.715-11.59-2.145c-3.245-1.43-6.147-3.298-8.708-5.603l1.473-2.177c0.213-0.341,0.448-0.597,0.705-0.769
		c0.256-0.17,0.618-0.256,1.088-0.256c0.554,0,1.238,0.342,2.049,1.024c0.81,0.683,1.867,1.419,3.169,2.209
		c1.302,0.791,2.923,1.527,4.866,2.209c1.942,0.684,4.343,1.025,7.204,1.025c2.689,0,5.058-0.374,7.107-1.121
		c2.049-0.747,3.756-1.761,5.123-3.042c1.366-1.281,2.401-2.786,3.105-4.515c0.705-1.729,1.057-3.554,1.057-5.475
		c0-2.134-0.512-3.906-1.537-5.314c-1.024-1.409-2.369-2.604-4.034-3.586c-1.665-0.981-3.554-1.814-5.667-2.497
		c-2.113-0.683-4.29-1.366-6.531-2.049c-2.241-0.682-4.418-1.43-6.531-2.241c-2.113-0.81-4.002-1.835-5.667-3.073
		c-1.665-1.238-3.009-2.743-4.034-4.514c-1.025-1.771-1.537-3.98-1.537-6.627c0-2.262,0.49-4.439,1.473-6.531
		c0.982-2.091,2.379-3.927,4.194-5.507c1.814-1.579,4.023-2.838,6.627-3.778c2.603-0.938,5.528-1.409,8.772-1.409
		c3.884,0,7.332,0.563,10.341,1.688c3.01,1.126,5.773,2.847,8.292,5.164L286.243,43.888z"/>
	<path d="M341.31,43.888c-0.299,0.598-0.769,0.896-1.409,0.896c-0.47,0-1.078-0.266-1.824-0.8c-0.748-0.533-1.729-1.131-2.945-1.793
		c-1.217-0.662-2.712-1.259-4.482-1.793c-1.772-0.533-3.938-0.8-6.5-0.8c-2.305,0-4.408,0.33-6.307,0.99
		c-1.9,0.661-3.521,1.544-4.866,2.65s-2.392,2.394-3.138,3.863c-0.748,1.469-1.121,3.013-1.121,4.63
		c0,2.001,0.513,3.662,1.537,4.981c1.024,1.32,2.369,2.447,4.034,3.384s3.554,1.746,5.667,2.427
		c2.112,0.682,4.279,1.364,6.499,2.046c2.219,0.684,4.386,1.441,6.499,2.273s4.002,1.868,5.667,3.105
		c1.665,1.239,3.01,2.753,4.034,4.546s1.537,3.97,1.537,6.531c0,2.775-0.503,5.357-1.505,7.748
		c-1.004,2.391-2.456,4.461-4.354,6.211c-1.9,1.751-4.237,3.138-7.012,4.162c-2.775,1.024-5.934,1.537-9.477,1.537
		c-4.482,0-8.347-0.715-11.59-2.145c-3.244-1.43-6.147-3.298-8.708-5.603l1.473-2.177c0.213-0.341,0.448-0.597,0.704-0.769
		c0.256-0.17,0.618-0.256,1.089-0.256c0.554,0,1.237,0.342,2.049,1.024c0.811,0.683,1.867,1.419,3.17,2.209
		c1.301,0.791,2.923,1.527,4.866,2.209c1.941,0.684,4.343,1.025,7.203,1.025c2.689,0,5.059-0.374,7.107-1.121
		c2.05-0.747,3.756-1.761,5.123-3.042c1.365-1.281,2.401-2.786,3.105-4.515c0.704-1.729,1.057-3.554,1.057-5.475
		c0-2.134-0.513-3.906-1.537-5.314s-2.369-2.604-4.034-3.586c-1.664-0.981-3.554-1.814-5.666-2.497
		c-2.113-0.683-4.291-1.366-6.531-2.049c-2.241-0.682-4.419-1.43-6.532-2.241c-2.112-0.81-4.002-1.835-5.666-3.073
		c-1.665-1.238-3.01-2.743-4.034-4.514c-1.024-1.771-1.537-3.98-1.537-6.627c0-2.262,0.49-4.439,1.473-6.531
		c0.981-2.091,2.38-3.927,4.194-5.507c1.813-1.579,4.023-2.838,6.627-3.778c2.604-0.938,5.528-1.409,8.772-1.409
		c3.884,0,7.332,0.563,10.342,1.688c3.009,1.126,5.772,2.847,8.292,5.164L341.31,43.888z"/>
	<path d="M406.47,99.66c-1.055,0-1.666-0.554-1.834-1.665l-0.643-10.053c-2.822,3.842-6.123,6.895-9.906,9.156
		c-3.783,2.263-8.025,3.394-12.727,3.394c-7.822,0-13.924-2.71-18.305-8.132c-4.382-5.42-6.572-13.553-6.572-24.396
		c0-4.652,0.608-8.997,1.827-13.031c1.219-4.034,3.014-7.534,5.387-10.501c2.372-2.967,5.279-5.304,8.721-7.012
		c3.44-1.707,7.405-2.561,11.894-2.561c4.316,0,8.057,0.8,11.22,2.401c3.164,1.601,5.899,3.938,8.208,7.012V6.493h6.083V99.66
		H406.47z M383.089,95.562c4.232,0,8.06-1.088,11.48-3.266c3.419-2.177,6.477-5.208,9.17-9.092V49.587
		c-2.479-3.628-5.205-6.189-8.177-7.684c-2.972-1.494-6.339-2.241-10.102-2.241c-3.762,0-7.054,0.683-9.875,2.049
		c-2.823,1.367-5.186,3.298-7.087,5.795c-1.903,2.498-3.335,5.486-4.297,8.965c-0.963,3.479-1.443,7.311-1.443,11.494
		c0,9.477,1.753,16.446,5.259,20.906C371.523,93.332,376.547,95.562,383.089,95.562z"/>
	<path d="M455.221,34.924c3.585,0,6.904,0.619,9.956,1.857c3.052,1.238,5.699,3.042,7.94,5.411s3.991,5.283,5.251,8.74
		c1.258,3.458,1.889,7.428,1.889,11.91c0,0.939-0.139,1.58-0.416,1.921c-0.277,0.342-0.715,0.512-1.311,0.512h-45.978v1.217
		c0,4.781,0.555,8.986,1.665,12.614c1.109,3.629,2.689,6.67,4.738,9.125c2.049,2.455,4.524,4.301,7.428,5.539
		c2.902,1.239,6.147,1.857,9.732,1.857c3.202,0,5.977-0.352,8.324-1.056c2.348-0.705,4.322-1.494,5.924-2.37
		c1.601-0.874,2.87-1.665,3.81-2.369c0.938-0.704,1.622-1.056,2.049-1.056c0.555,0,0.981,0.214,1.28,0.64l1.665,2.049
		c-1.024,1.281-2.38,2.477-4.065,3.586c-1.688,1.11-3.565,2.06-5.635,2.85c-2.071,0.79-4.291,1.419-6.66,1.889
		s-4.749,0.705-7.14,0.705c-4.354,0-8.323-0.758-11.909-2.273c-3.586-1.515-6.664-3.724-9.231-6.627
		c-2.567-2.903-4.553-6.457-5.954-10.662c-1.403-4.204-2.104-9.018-2.104-14.439c0-4.567,0.65-8.783,1.953-12.646
		c1.302-3.863,3.18-7.193,5.635-9.989c2.454-2.795,5.464-4.983,9.028-6.563C446.65,35.714,450.695,34.924,455.221,34.924z
		 M455.314,39.47c-3.283,0-6.225,0.513-8.823,1.537c-2.601,1.024-4.849,2.497-6.746,4.418c-1.896,1.921-3.431,4.226-4.603,6.916
		c-1.173,2.689-1.95,5.699-2.334,9.029h41.941c0-3.415-0.469-6.478-1.406-9.189c-0.938-2.71-2.26-5.004-3.965-6.883
		c-1.704-1.878-3.75-3.319-6.138-4.322C460.854,39.972,458.212,39.47,455.314,39.47z"/>
	<path d="M496.647,99.66V35.948h3.202c0.725,0,1.248,0.15,1.568,0.448c0.32,0.299,0.501,0.812,0.544,1.537l0.513,13.447
		c2.049-5.165,4.78-9.209,8.196-12.134c3.414-2.923,7.619-4.386,12.614-4.386c1.921,0,3.691,0.203,5.314,0.608
		c1.622,0.406,3.158,0.993,4.61,1.761l-0.832,4.226c-0.129,0.683-0.556,1.024-1.281,1.024c-0.256,0-0.619-0.085-1.088-0.256
		c-0.471-0.17-1.057-0.362-1.762-0.576c-0.704-0.213-1.568-0.405-2.593-0.576c-1.024-0.17-2.199-0.256-3.521-0.256
		c-4.825,0-8.784,1.495-11.878,4.482c-3.096,2.988-5.604,7.3-7.524,12.935V99.66H496.647z"/>
	<path d="M548.128,99.66V6.493h6.083l0.063,40.597c2.817-3.756,6.084-6.724,9.798-8.9c3.714-2.177,7.896-3.266,12.55-3.266
		c7.812,0,13.905,2.7,18.281,8.1c4.375,5.4,6.563,13.521,6.563,24.364c0,4.653-0.609,8.996-1.828,13.03s-3.014,7.535-5.386,10.501
		c-2.372,2.967-5.278,5.305-8.72,7.011c-3.441,1.708-7.405,2.562-11.894,2.562c-4.446,0-8.272-0.865-11.478-2.593
		c-3.206-1.729-5.963-4.279-8.271-7.652l-0.38,7.812c-0.127,1.067-0.697,1.601-1.71,1.601H548.128z M574.861,39.79
		c-4.233,0-8.061,1.089-11.479,3.266c-3.421,2.177-6.478,5.208-9.171,9.093v33.617c2.438,3.672,5.131,6.243,8.081,7.716
		c2.949,1.473,6.349,2.209,10.197,2.209c3.762,0,7.054-0.682,9.876-2.049c2.821-1.366,5.184-3.298,7.086-5.795
		s3.334-5.485,4.297-8.964c0.962-3.479,1.443-7.31,1.443-11.494c0-9.477-1.753-16.445-5.259-20.907
		C586.427,42.021,581.402,39.79,574.861,39.79z"/>
</g>
<g>
</g>
<g>
</g>
<g>
</g>
<g>
</g>
<g>
</g>
<g>
</g>
<g>
</g>
<g>
</g>
<g>
</g>
<g>
</g>
<g>
</g>
<g>
</g>
<g>
</g>
<g>
</g>
<g>
</g>
</svg>
