<?xml version="1.0" encoding="utf-8"?>
<!-- Generator: Adobe Illustrator 17.0.0, SVG Export Plug-In . SVG Version: 6.00 Build 0)  -->
<!DOCTYPE svg PUBLIC "-//W3C//DTD SVG 1.1//EN" "http://www.w3.org/Graphics/SVG/1.1/DTD/svg11.dtd">
<svg version="1.1" id="Layer_1" xmlns="http://www.w3.org/2000/svg" xmlns:xlink="http://www.w3.org/1999/xlink" x="0px" y="0px"
	 width="340.667px" height="58.973px" viewBox="0 0 340.667 58.973" enable-background="new 0 0 340.667 58.973"
	 xml:space="preserve">
<g>
	<path d="M27.876,2.542c-2.886,0-5.233,2.263-5.399,5.107c-5.44,1.246-10.196,4.339-13.559,8.574
		C8.731,16.472,8.773,16.867,9,17.053c0.25,0.187,0.644,0.145,0.83-0.083c3.156-3.986,7.6-6.892,12.707-8.117
		c0.437,2.553,2.659,4.505,5.337,4.505s4.9-1.951,5.336-4.505c5.108,1.225,9.552,4.131,12.687,8.117
		c0.207,0.229,0.602,0.27,0.83,0.083c0.249-0.187,0.291-0.581,0.104-0.83c-3.364-4.235-8.119-7.307-13.559-8.553
		C33.108,4.826,30.762,2.542,27.876,2.542L27.876,2.542z M27.876,3.684c2.346,0,4.236,1.93,4.236,4.276s-1.89,4.235-4.236,4.235
		c-2.367,0-4.236-1.889-4.236-4.235S25.508,3.684,27.876,3.684L27.876,3.684z M49.72,21.89c-0.353,0.042-0.623,0.479-0.478,0.81
		c1.038,2.636,1.62,5.501,1.62,8.511c0,2.284-0.353,4.484-0.955,6.56c-2.43-0.913-5.233,0.041-6.583,2.346
		c-1.329,2.325-0.768,5.232,1.225,6.893c-3.468,3.654-8.119,6.187-13.351,6.933c-0.312,0.042-0.54,0.374-0.499,0.664
		c0.041,0.311,0.353,0.56,0.664,0.519c5.586-0.81,10.528-3.53,14.203-7.453c2.533,1.287,5.69,0.374,7.144-2.139
		c1.433-2.491,0.644-5.688-1.744-7.244c0.685-2.242,1.059-4.61,1.059-7.08c0-3.155-0.602-6.165-1.703-8.926
		C50.239,22.036,49.969,21.87,49.72,21.89L49.72,21.89z M5.886,21.912c-0.208,0.02-0.395,0.187-0.479,0.373
		c-1.08,2.761-1.702,5.771-1.702,8.926c0,2.45,0.393,4.837,1.079,7.08c-2.409,1.557-3.197,4.753-1.744,7.244
		c1.434,2.513,4.61,3.426,7.164,2.118c3.655,3.944,8.617,6.664,14.182,7.473c0.311,0.041,0.622-0.207,0.664-0.519
		c0.042-0.291-0.187-0.623-0.499-0.664c-5.232-0.747-9.904-3.28-13.373-6.955c1.993-1.64,2.575-4.547,1.224-6.871
		c-1.328-2.304-4.132-3.259-6.561-2.346c-0.624-2.076-0.955-4.298-0.955-6.56c0-3.01,0.56-5.875,1.599-8.49
		c0.144-0.353-0.145-0.809-0.54-0.809C5.927,21.912,5.907,21.912,5.886,21.912L5.886,21.912z M7.609,38.581
		c1.516-0.02,2.99,0.727,3.8,2.139c1.162,2.035,0.478,4.609-1.558,5.771c-2.035,1.184-4.631,0.499-5.815-1.536
		c-1.162-2.035-0.478-4.63,1.559-5.792C6.24,38.789,6.924,38.602,7.609,38.581L7.609,38.581z M48.121,38.581
		c0.685,0.021,1.391,0.207,2.014,0.581c2.036,1.162,2.741,3.757,1.558,5.792c-1.184,2.034-3.758,2.74-5.793,1.557
		c-2.056-1.162-2.721-3.757-1.558-5.792C45.151,39.308,46.625,38.54,48.121,38.581L48.121,38.581z"/>
</g>
<g>
	<path d="M85.084,11.579c-0.18,0.34-0.44,0.51-0.78,0.51c-0.261,0-0.597-0.185-1.008-0.555s-0.968-0.78-1.67-1.23
		c-0.702-0.45-1.58-0.865-2.633-1.245c-1.053-0.379-2.353-0.57-3.897-0.57s-2.904,0.22-4.078,0.66c-1.174,0.44-2.157,1.041-2.95,1.8
		c-0.792,0.76-1.395,1.64-1.806,2.64c-0.412,1-0.617,2.05-0.617,3.15c0,1.44,0.305,2.63,0.916,3.57c0.61,0.94,1.417,1.74,2.418,2.4
		c1.001,0.66,2.138,1.215,3.41,1.665c1.272,0.45,2.579,0.896,3.921,1.335c1.341,0.44,2.648,0.925,3.92,1.455
		c1.272,0.53,2.409,1.195,3.41,1.995c1.001,0.8,1.808,1.785,2.419,2.955c0.611,1.17,0.917,2.625,0.917,4.365
		c0,1.78-0.305,3.455-0.915,5.025c-0.61,1.57-1.496,2.936-2.655,4.095c-1.16,1.16-2.58,2.075-4.26,2.745
		c-1.68,0.67-3.6,1.005-5.76,1.005c-2.8,0-5.21-0.495-7.23-1.485c-2.02-0.99-3.79-2.345-5.31-4.065l0.84-1.32
		c0.24-0.3,0.52-0.45,0.84-0.45c0.18,0,0.411,0.12,0.691,0.36c0.28,0.24,0.621,0.535,1.021,0.885c0.4,0.351,0.881,0.73,1.442,1.14
		c0.561,0.41,1.211,0.791,1.953,1.14c0.741,0.35,1.592,0.645,2.553,0.885c0.961,0.24,2.053,0.36,3.275,0.36
		c1.682,0,3.185-0.255,4.506-0.765c1.322-0.51,2.438-1.205,3.35-2.085c0.912-0.88,1.607-1.925,2.088-3.135
		c0.48-1.209,0.721-2.505,0.721-3.885c0-1.5-0.306-2.735-0.917-3.705c-0.611-0.97-1.417-1.78-2.419-2.43
		c-1.001-0.649-2.138-1.195-3.41-1.635c-1.271-0.44-2.579-0.87-3.92-1.29c-1.342-0.42-2.649-0.89-3.921-1.41
		c-1.271-0.52-2.408-1.185-3.41-1.995c-1.001-0.81-1.808-1.82-2.418-3.03c-0.611-1.21-0.916-2.725-0.916-4.545
		c0-1.42,0.27-2.79,0.811-4.11c0.541-1.32,1.332-2.485,2.373-3.495c1.042-1.01,2.328-1.82,3.861-2.43
		c1.532-0.61,3.279-0.915,5.242-0.915c2.203,0,4.181,0.35,5.933,1.05s3.349,1.77,4.79,3.21L85.084,11.579z"/>
	<path d="M102.574,49.349c-2.021,0-3.59-0.56-4.71-1.68c-1.12-1.12-1.68-2.85-1.68-5.19v-20.4h-4.29c-0.22,0-0.4-0.06-0.54-0.18
		c-0.14-0.12-0.21-0.29-0.21-0.51v-1.11l5.1-0.36l0.712-10.68c0.02-0.18,0.094-0.34,0.222-0.48c0.128-0.14,0.302-0.21,0.52-0.21
		h1.335v11.4h9.39v2.13h-9.39v20.25c0,0.82,0.105,1.525,0.315,2.115s0.5,1.075,0.87,1.455c0.37,0.38,0.805,0.66,1.305,0.84
		c0.5,0.18,1.04,0.27,1.62,0.27c0.72,0,1.34-0.105,1.86-0.315s0.97-0.44,1.35-0.69c0.38-0.25,0.69-0.48,0.93-0.69
		c0.24-0.21,0.43-0.315,0.57-0.315c0.16,0,0.32,0.101,0.48,0.3l0.78,1.26c-0.76,0.84-1.725,1.515-2.895,2.025
		C105.049,49.094,103.834,49.349,102.574,49.349z"/>
	<path d="M115.833,48.869v-29.85h1.5c0.34,0,0.585,0.07,0.735,0.21c0.15,0.14,0.235,0.38,0.255,0.72l0.24,6.3
		c0.96-2.419,2.24-4.315,3.84-5.685c1.6-1.37,3.57-2.055,5.91-2.055c0.9,0,1.73,0.095,2.49,0.285c0.76,0.19,1.48,0.465,2.16,0.825
		l-0.39,1.98c-0.06,0.32-0.26,0.48-0.6,0.48c-0.12,0-0.29-0.04-0.51-0.12c-0.221-0.08-0.495-0.169-0.825-0.27
		c-0.33-0.1-0.735-0.189-1.215-0.27c-0.48-0.08-1.03-0.12-1.65-0.12c-2.26,0-4.115,0.7-5.565,2.1c-1.45,1.4-2.625,3.42-3.525,6.06
		v19.41H115.833z"/>
	<path d="M150.902,18.539c1.68,0,3.235,0.29,4.665,0.87c1.43,0.58,2.67,1.425,3.72,2.535c1.051,1.11,1.87,2.475,2.46,4.095
		s0.886,3.48,0.886,5.58c0,0.44-0.065,0.74-0.195,0.9c-0.13,0.161-0.335,0.24-0.614,0.24h-21.541v0.57c0,2.24,0.259,4.21,0.78,5.91
		c0.52,1.7,1.26,3.125,2.22,4.275c0.96,1.15,2.12,2.015,3.48,2.595c1.36,0.58,2.88,0.87,4.56,0.87c1.5,0,2.8-0.165,3.9-0.495
		c1.1-0.33,2.024-0.7,2.774-1.11c0.75-0.41,1.346-0.78,1.785-1.11c0.44-0.33,0.76-0.495,0.96-0.495c0.26,0,0.46,0.101,0.601,0.3
		l0.779,0.96c-0.479,0.6-1.114,1.16-1.904,1.68c-0.791,0.521-1.671,0.965-2.641,1.335c-0.97,0.371-2.01,0.666-3.12,0.885
		s-2.225,0.33-3.345,0.33c-2.04,0-3.9-0.355-5.58-1.065c-1.68-0.71-3.122-1.745-4.325-3.105c-1.204-1.36-2.133-3.025-2.79-4.995
		c-0.657-1.97-0.985-4.225-0.985-6.765c0-2.14,0.305-4.115,0.915-5.925c0.61-1.81,1.49-3.37,2.64-4.68
		c1.15-1.31,2.56-2.335,4.23-3.075C146.887,18.91,148.782,18.539,150.902,18.539z M150.946,20.669c-1.538,0-2.917,0.24-4.134,0.72
		c-1.218,0.48-2.271,1.17-3.16,2.07c-0.889,0.9-1.607,1.98-2.157,3.24c-0.549,1.26-0.914,2.67-1.093,4.23h19.65
		c0-1.6-0.22-3.035-0.659-4.305c-0.439-1.27-1.059-2.345-1.857-3.225c-0.799-0.879-1.757-1.555-2.875-2.025
		C153.542,20.904,152.304,20.669,150.946,20.669z"/>
	<path d="M181.562,18.539c1.68,0,3.234,0.29,4.665,0.87c1.43,0.58,2.67,1.425,3.72,2.535c1.05,1.11,1.87,2.475,2.46,4.095
		s0.885,3.48,0.885,5.58c0,0.44-0.065,0.74-0.195,0.9c-0.129,0.161-0.334,0.24-0.613,0.24h-21.541v0.57c0,2.24,0.26,4.21,0.779,5.91
		c0.521,1.7,1.261,3.125,2.221,4.275c0.96,1.15,2.119,2.015,3.479,2.595s2.88,0.87,4.561,0.87c1.5,0,2.8-0.165,3.899-0.495
		c1.1-0.33,2.025-0.7,2.775-1.11c0.75-0.41,1.345-0.78,1.785-1.11c0.439-0.33,0.76-0.495,0.96-0.495c0.26,0,0.46,0.101,0.6,0.3
		l0.78,0.96c-0.48,0.6-1.115,1.16-1.905,1.68c-0.79,0.521-1.67,0.965-2.64,1.335c-0.971,0.371-2.01,0.666-3.12,0.885
		s-2.226,0.33-3.345,0.33c-2.04,0-3.9-0.355-5.58-1.065c-1.681-0.71-3.122-1.745-4.325-3.105s-2.133-3.025-2.79-4.995
		c-0.657-1.97-0.985-4.225-0.985-6.765c0-2.14,0.305-4.115,0.915-5.925s1.49-3.37,2.641-4.68c1.149-1.31,2.56-2.335,4.229-3.075
		C177.547,18.91,179.442,18.539,181.562,18.539z M181.606,20.669c-1.538,0-2.916,0.24-4.134,0.72c-1.219,0.48-2.271,1.17-3.161,2.07
		c-0.889,0.9-1.606,1.98-2.156,3.24c-0.55,1.26-0.914,2.67-1.093,4.23h19.649c0-1.6-0.22-3.035-0.659-4.305
		c-0.439-1.27-1.058-2.345-1.856-3.225c-0.799-0.879-1.758-1.555-2.876-2.025C184.202,20.904,182.964,20.669,181.606,20.669z"/>
	<path d="M209.101,49.349c-2.021,0-3.591-0.56-4.71-1.68c-1.12-1.12-1.681-2.85-1.681-5.19v-20.4h-4.29
		c-0.22,0-0.399-0.06-0.54-0.18c-0.14-0.12-0.21-0.29-0.21-0.51v-1.11l5.101-0.36l0.712-10.68c0.021-0.18,0.094-0.34,0.223-0.48
		c0.128-0.14,0.302-0.21,0.52-0.21h1.336v11.4h9.39v2.13h-9.39v20.25c0,0.82,0.104,1.525,0.314,2.115s0.5,1.075,0.87,1.455
		c0.37,0.38,0.805,0.66,1.306,0.84c0.499,0.18,1.039,0.27,1.619,0.27c0.721,0,1.34-0.105,1.86-0.315c0.52-0.21,0.97-0.44,1.35-0.69
		c0.38-0.25,0.69-0.48,0.931-0.69s0.43-0.315,0.569-0.315c0.16,0,0.32,0.101,0.48,0.3l0.78,1.26
		c-0.761,0.84-1.726,1.515-2.896,2.025C211.576,49.094,210.361,49.349,209.101,49.349z"/>
	<path d="M222.36,48.869V5.219h2.85v18.9c1.38-1.7,2.955-3.055,4.725-4.065c1.771-1.01,3.755-1.515,5.955-1.515
		c1.64,0,3.085,0.26,4.335,0.78s2.285,1.27,3.105,2.25c0.819,0.98,1.439,2.16,1.86,3.54c0.42,1.38,0.63,2.94,0.63,4.68v19.08h-2.851
		v-19.08c0-2.8-0.64-4.995-1.92-6.585s-3.24-2.385-5.88-2.385c-1.96,0-3.78,0.505-5.46,1.515c-1.68,1.01-3.18,2.396-4.5,4.155v22.38
		H222.36z"/>
	<path d="M266.07,18.539c1.68,0,3.234,0.29,4.665,0.87c1.43,0.58,2.67,1.425,3.72,2.535c1.05,1.11,1.87,2.475,2.46,4.095
		s0.885,3.48,0.885,5.58c0,0.44-0.065,0.74-0.195,0.9c-0.129,0.161-0.334,0.24-0.613,0.24H255.45v0.57c0,2.24,0.26,4.21,0.779,5.91
		c0.521,1.7,1.261,3.125,2.221,4.275c0.96,1.15,2.119,2.015,3.479,2.595s2.88,0.87,4.561,0.87c1.5,0,2.8-0.165,3.899-0.495
		c1.1-0.33,2.025-0.7,2.775-1.11c0.75-0.41,1.345-0.78,1.785-1.11c0.439-0.33,0.76-0.495,0.96-0.495c0.26,0,0.46,0.101,0.6,0.3
		l0.78,0.96c-0.48,0.6-1.115,1.16-1.905,1.68c-0.79,0.521-1.67,0.965-2.64,1.335c-0.971,0.371-2.01,0.666-3.12,0.885
		s-2.226,0.33-3.345,0.33c-2.04,0-3.9-0.355-5.58-1.065c-1.681-0.71-3.122-1.745-4.325-3.105c-1.203-1.36-2.133-3.025-2.79-4.995
		c-0.657-1.97-0.985-4.225-0.985-6.765c0-2.14,0.305-4.115,0.915-5.925s1.49-3.37,2.641-4.68c1.149-1.31,2.56-2.335,4.229-3.075
		C262.054,18.91,263.95,18.539,266.07,18.539z M266.114,20.669c-1.538,0-2.916,0.24-4.134,0.72c-1.219,0.48-2.271,1.17-3.161,2.07
		c-0.889,0.9-1.606,1.98-2.156,3.24c-0.55,1.26-0.914,2.67-1.093,4.23h19.649c0-1.6-0.22-3.035-0.659-4.305
		c-0.439-1.27-1.058-2.345-1.856-3.225c-0.799-0.879-1.758-1.555-2.876-2.025C268.71,20.904,267.471,20.669,266.114,20.669z"/>
	<path d="M304.529,48.869c-0.601,0-0.971-0.28-1.11-0.84l-0.42-3.81c-0.82,0.8-1.635,1.52-2.445,2.16
		c-0.81,0.641-1.654,1.181-2.534,1.62c-0.881,0.44-1.83,0.775-2.851,1.005c-1.02,0.23-2.14,0.345-3.359,0.345
		c-1.021,0-2.011-0.15-2.971-0.45c-0.96-0.3-1.81-0.76-2.55-1.38c-0.74-0.62-1.335-1.415-1.785-2.385s-0.675-2.135-0.675-3.495
		c0-1.26,0.36-2.43,1.08-3.51c0.72-1.08,1.845-2.02,3.375-2.82c1.53-0.8,3.5-1.44,5.91-1.92c2.409-0.48,5.305-0.76,8.685-0.84v-3.12
		c0-2.76-0.595-4.885-1.785-6.375c-1.189-1.49-2.955-2.235-5.295-2.235c-1.439,0-2.665,0.2-3.675,0.6
		c-1.01,0.4-1.865,0.84-2.564,1.32c-0.701,0.48-1.271,0.92-1.71,1.32c-0.44,0.4-0.811,0.6-1.11,0.6c-0.4,0-0.7-0.18-0.9-0.54
		l-0.51-0.87c1.56-1.56,3.2-2.74,4.92-3.54c1.72-0.799,3.67-1.2,5.851-1.2c1.6,0,3,0.255,4.199,0.765
		c1.2,0.51,2.195,1.241,2.985,2.19s1.385,2.1,1.785,3.45c0.399,1.35,0.6,2.855,0.6,4.515v19.44H304.529z M292.529,47.279
		c1.159,0,2.225-0.125,3.195-0.375c0.97-0.25,1.869-0.6,2.699-1.05c0.83-0.45,1.605-0.985,2.325-1.605
		c0.72-0.62,1.43-1.29,2.13-2.01v-7.77c-2.84,0.08-5.285,0.295-7.335,0.645c-2.05,0.35-3.74,0.825-5.069,1.425
		c-1.331,0.6-2.311,1.315-2.94,2.145c-0.63,0.83-0.945,1.775-0.945,2.835c0,1,0.165,1.865,0.495,2.595s0.766,1.33,1.305,1.8
		c0.54,0.47,1.171,0.815,1.891,1.035C290.999,47.169,291.749,47.279,292.529,47.279z"/>
	<path d="M335.838,48.869c-0.494,0-0.78-0.26-0.859-0.78l-0.302-4.71c-1.321,1.8-2.868,3.23-4.641,4.29
		c-1.772,1.061-3.76,1.59-5.963,1.59c-3.664,0-6.523-1.27-8.576-3.81c-2.053-2.54-3.078-6.35-3.078-11.43
		c0-2.18,0.284-4.215,0.855-6.105s1.412-3.53,2.523-4.92c1.112-1.39,2.474-2.485,4.086-3.285c1.612-0.799,3.47-1.2,5.572-1.2
		c2.022,0,3.774,0.375,5.257,1.125s2.764,1.845,3.846,3.285v-17.7h2.85v43.65H335.838z M324.883,46.949
		c1.982,0,3.775-0.51,5.378-1.53s3.035-2.439,4.297-4.26v-15.75c-1.162-1.7-2.438-2.9-3.831-3.6c-1.393-0.7-2.97-1.05-4.732-1.05
		s-3.306,0.32-4.627,0.96c-1.322,0.64-2.43,1.545-3.32,2.715c-0.892,1.17-1.563,2.57-2.014,4.2c-0.45,1.63-0.676,3.425-0.676,5.385
		c0,4.44,0.821,7.706,2.464,9.795C319.465,45.904,321.818,46.949,324.883,46.949z"/>
</g>
<g>
</g>
<g>
</g>
<g>
</g>
<g>
</g>
<g>
</g>
<g>
</g>
<g>
</g>
<g>
</g>
<g>
</g>
<g>
</g>
<g>
</g>
<g>
</g>
<g>
</g>
<g>
</g>
<g>
</g>
</svg>
